REM DIRINDEX 1\2,1\3,1\4,1\5
REM DIRNAME cjc005,folder01,folder02,folder03,folder04
TITLE ""
FILE "P1Q_j_1803-1816.mp3" MP3
  TRACK 01 AUDIO
    TITLE "3:cjc005_0758"
    INDEX 01 00:00:00
  TRACK 02 AUDIO
    TITLE "0:"
    INDEX 01 00:01:15
  TRACK 03 AUDIO
    TITLE "4:cjc005_0759"
    INDEX 01 00:01:44
  TRACK 04 AUDIO
    TITLE "0:"
    INDEX 01 00:02:51
  TRACK 05 AUDIO
    TITLE "5:cjc005_0760"
    INDEX 01 00:03:04
  TRACK 06 AUDIO
    TITLE "0:"
    INDEX 01 00:06:24
  TRACK 07 AUDIO
    TITLE "3:cjc005_0761"
    INDEX 01 00:07:07
  TRACK 08 AUDIO
    TITLE "0:"
    INDEX 01 00:08:32
  TRACK 09 AUDIO
    TITLE "4:cjc005_0762"
    INDEX 01 00:08:72
  TRACK 10 AUDIO
    TITLE "0:"
    INDEX 01 00:10:10
  TRACK 11 AUDIO
    TITLE "5:cjc005_0763"
    INDEX 01 00:10:37
  TRACK 12 AUDIO
    TITLE "0:"
    INDEX 01 00:14:09
  TRACK 13 AUDIO
    TITLE "3:cjc005_0764"
    INDEX 01 00:14:68
  TRACK 14 AUDIO
    TITLE "0:"
    INDEX 01 00:16:26
  TRACK 15 AUDIO
    TITLE "4:cjc005_0765"
    INDEX 01 00:16:57
  TRACK 16 AUDIO
    TITLE "0:"
    INDEX 01 00:18:03
  TRACK 17 AUDIO
    TITLE "5:cjc005_0766"
    INDEX 01 00:18:25
  TRACK 18 AUDIO
    TITLE "0:"
    INDEX 01 00:22:52
  TRACK 19 AUDIO
    TITLE "3:cjc005_0767"
    INDEX 01 00:23:36
  TRACK 20 AUDIO
    TITLE "0:"
    INDEX 01 00:24:69
  TRACK 21 AUDIO
    TITLE "4:cjc005_0768"
    INDEX 01 00:25:27
  TRACK 22 AUDIO
    TITLE "0:"
    INDEX 01 00:26:73
  TRACK 23 AUDIO
    TITLE "5:cjc005_0769"
    INDEX 01 00:27:24
  TRACK 24 AUDIO
    TITLE "0:"
    INDEX 01 00:31:27
  TRACK 25 AUDIO
    TITLE "3:cjc005_0770"
    INDEX 01 00:32:07
  TRACK 26 AUDIO
    TITLE "0:"
    INDEX 01 00:33:26
  TRACK 27 AUDIO
    TITLE "4:cjc005_0771"
    INDEX 01 00:33:58
  TRACK 28 AUDIO
    TITLE "0:"
    INDEX 01 00:35:12
  TRACK 29 AUDIO
    TITLE "5:cjc005_0772"
    INDEX 01 00:35:43
  TRACK 30 AUDIO
    TITLE "0:"
    INDEX 01 00:38:43
  TRACK 31 AUDIO
    TITLE "3:cjc005_0773"
    INDEX 01 00:39:25
  TRACK 32 AUDIO
    TITLE "0:"
    INDEX 01 00:40:58
  TRACK 33 AUDIO
    TITLE "4:cjc005_0774"
    INDEX 01 00:41:16
  TRACK 34 AUDIO
    TITLE "0:"
    INDEX 01 00:43:05
  TRACK 35 AUDIO
    TITLE "5:cjc005_0775"
    INDEX 01 00:43:40
  TRACK 36 AUDIO
    TITLE "0:"
    INDEX 01 00:46:11
  TRACK 37 AUDIO
    TITLE "3:cjc005_0776"
    INDEX 01 00:46:74
  TRACK 38 AUDIO
    TITLE "0:"
    INDEX 01 00:48:20
  TRACK 39 AUDIO
    TITLE "4:cjc005_0777"
    INDEX 01 00:48:53
  TRACK 40 AUDIO
    TITLE "0:"
    INDEX 01 00:50:37
  TRACK 41 AUDIO
    TITLE "5:cjc005_0778"
    INDEX 01 00:50:66
  TRACK 42 AUDIO
    TITLE "0:"
    INDEX 01 00:53:47
  TRACK 43 AUDIO
    TITLE "3:cjc005_0779"
    INDEX 01 00:54:34
  TRACK 44 AUDIO
    TITLE "0:"
    INDEX 01 00:55:51
  TRACK 45 AUDIO
    TITLE "4:cjc005_0780"
    INDEX 01 00:56:10
  TRACK 46 AUDIO
    TITLE "0:"
    INDEX 01 00:57:33
  TRACK 47 AUDIO
    TITLE "5:cjc005_0781"
    INDEX 01 00:57:60
  TRACK 48 AUDIO
    TITLE "0:"
    INDEX 01 01:01:48
  TRACK 49 AUDIO
    TITLE "3:cjc005_0782"
    INDEX 01 01:02:30
  TRACK 50 AUDIO
    TITLE "0:"
    INDEX 01 01:03:57
  TRACK 51 AUDIO
    TITLE "4:cjc005_0783"
    INDEX 01 01:04:15
  TRACK 52 AUDIO
    TITLE "0:"
    INDEX 01 01:05:73
  TRACK 53 AUDIO
    TITLE "5:cjc005_0784"
    INDEX 01 01:06:24
  TRACK 54 AUDIO
    TITLE "0:"
    INDEX 01 01:10:22
  TRACK 55 AUDIO
    TITLE "3:cjc005_0785"
    INDEX 01 01:11:11
  TRACK 56 AUDIO
    TITLE "0:"
    INDEX 01 01:12:54
  TRACK 57 AUDIO
    TITLE "4:cjc005_0786"
    INDEX 01 01:13:14
  TRACK 58 AUDIO
    TITLE "0:"
    INDEX 01 01:15:07
  TRACK 59 AUDIO
    TITLE "5:cjc005_0787"
    INDEX 01 01:15:39
  TRACK 60 AUDIO
    TITLE "0:"
    INDEX 01 01:18:58
  TRACK 61 AUDIO
    TITLE "3:cjc005_0788"
    INDEX 01 01:19:40
  TRACK 62 AUDIO
    TITLE "0:"
    INDEX 01 01:20:65
  TRACK 63 AUDIO
    TITLE "4:cjc005_0789"
    INDEX 01 01:21:21
  TRACK 64 AUDIO
    TITLE "0:"
    INDEX 01 01:22:42
  TRACK 65 AUDIO
    TITLE "5:cjc005_0790"
    INDEX 01 01:22:68
  TRACK 66 AUDIO
    TITLE "0:"
    INDEX 01 01:27:14
  TRACK 67 AUDIO
    TITLE "3:cjc005_0791"
    INDEX 01 01:27:69
  TRACK 68 AUDIO
    TITLE "0:"
    INDEX 01 01:29:11
  TRACK 69 AUDIO
    TITLE "4:cjc005_0792"
    INDEX 01 01:29:39
  TRACK 70 AUDIO
    TITLE "0:"
    INDEX 01 01:30:69
  TRACK 71 AUDIO
    TITLE "5:cjc005_0793"
    INDEX 01 01:31:20
  TRACK 72 AUDIO
    TITLE "0:"
    INDEX 01 01:36:09
  TRACK 73 AUDIO
    TITLE "3:cjc005_0794"
    INDEX 01 01:36:62
  TRACK 74 AUDIO
    TITLE "0:"
    INDEX 01 01:38:02
  TRACK 75 AUDIO
    TITLE "4:cjc005_0795"
    INDEX 01 01:38:34
  TRACK 76 AUDIO
    TITLE "0:"
    INDEX 01 01:39:47
  TRACK 77 AUDIO
    TITLE "5:cjc005_0796"
    INDEX 01 01:39:74
  TRACK 78 AUDIO
    TITLE "0:"
    INDEX 01 01:43:03
  TRACK 79 AUDIO
    TITLE "3:cjc005_0797"
    INDEX 01 01:43:33
  TRACK 80 AUDIO
    TITLE "0:"
    INDEX 01 01:44:50
  TRACK 81 AUDIO
    TITLE "4:cjc005_0798"
    INDEX 01 01:45:18
  TRACK 82 AUDIO
    TITLE "0:"
    INDEX 01 01:46:39
  TRACK 83 AUDIO
    TITLE "5:cjc005_0799"
    INDEX 01 01:46:65
  TRACK 84 AUDIO
    TITLE "0:"
    INDEX 01 01:50:07
